# xmcd CD database file
#
# Track frame offsets:
#	150
#	12105
#	26738
#	39458
#	49933
#	63423
#	80545
#	98553
#	110093
#	123085
#	131350
#	157953
#
# Disc length: 2387 seconds
#
# Revision: 2
# Processed by: cddbd v1.5.2PL0 Copyright (c) Steve Scherf et al.
# Submitted via: CDex 1.51
#
DISCID=9009510c
DTITLE=Death From Above 1979 - You're A Wowan, I'm A Machine
DYEAR=2004
DGENRE=Rock
TTITLE0=Turn It Out
TTITLE1=Romantic Rights
TTITLE2=Going Steady
TTITLE3=Go Home, Get Down
TTITLE4=Blood On Our Hands
TTITLE5=Black History Month
TTITLE6=Little Girl
TTITLE7=Cold War
TTITLE8=You're A Wowan, I'm A Machine
TTITLE9=Pull Out
TTITLE10=Sexy Results
TTITLE11=Romantic Rights(The Phones Lovers Remix)
EXTD=YEAR: 2004
EXTT0=
EXTT1=
EXTT2=
EXTT3=
EXTT4=
EXTT5=
EXTT6=
EXTT7=
EXTT8=
EXTT9=
EXTT10=
EXTT11=
PLAYORDER=
